<?xml version="1.0" encoding="utf-8"?>
<!-- Generator: Adobe Illustrator 19.2.0, SVG Export Plug-In . SVG Version: 6.00 Build 0)  -->
<!DOCTYPE svg PUBLIC "-//W3C//DTD SVG 1.1//EN" "http://www.w3.org/Graphics/SVG/1.1/DTD/svg11.dtd">
<svg version="1.1" id="Layer_1" xmlns="http://www.w3.org/2000/svg" xmlns:xlink="http://www.w3.org/1999/xlink" x="0px" y="0px"
	 width="579px" height="468px" viewBox="0 0 579 468" enable-background="new 0 0 579 468" xml:space="preserve">
<path d="M67,84c0-1.1,0.9-2,2-2h22c1.1,0,2,0.9,2,2s-0.9,2-2,2H69C67.9,86,67,85.1,67,84z M64,128h32c1.1,0,2-0.9,2-2s-0.9-2-2-2H64
	c-1.1,0-2,0.9-2,2S62.9,128,64,128z M99,129H61c-2.2,0-4,1.8-4,4s1.8,4,4,4h38c2.2,0,4-1.8,4-4S101.2,129,99,129z M70.95,87
	c-0.358,27.588-2.586,30.262-3.528,36h25.156c-0.942-5.738-3.17-8.412-3.528-36H70.95z M89,81c0,0,4-6,4-11
	c0-4.411-10.112-13.488-12.496-19h-1.008c-0.871,2.015-2.776,4.506-4.842,7.072l4.24,8.48l-1.789,0.895l-3.834-7.668
	C70.1,63.686,67,67.558,67,70c0,5,4,11,4,11H89z"/>
<path d="M207,81c0-1.1,0.9-2,2-2h22c1.1,0,2,0.9,2,2s-0.9,2-2,2h-22C207.9,83,207,82.1,207,81z M204,129h32c1.1,0,2-0.9,2-2
	c0-1.1-0.9-2-2-2h-32c-1.1,0-2,0.9-2,2C202,128.1,202.9,129,204,129z M239,130h-38c-2.2,0-4,1.8-4,4s1.8,4,4,4h38c2.2,0,4-1.8,4-4
	S241.2,130,239,130z M207,65l0.615,2h24.77L233,65l-11-4.23V56h2v-4h-2v-2h-4v2h-2v4h2v4.77L207,65z M229,78l3.077-10h-24.154
	L211,78H229z M210.973,84c-0.277,29.941-2.637,33.514-3.583,40h25.22c-0.946-6.486-3.306-10.059-3.583-40H210.973z"/>
<path d="M342.875,83.219l1.249,1.563l-5.475,4.379C339.176,91.357,341.145,93,343.5,93c2.527,0,4.622-1.885,4.954-4.32l5.849-2.508
	c2.944,2.451,7.337,2.297,10.097-0.465c2.924-2.924,2.924-7.682,0-10.606l0.707-0.707c1.605,1.605,2.49,3.739,2.49,6.011
	c0,1.328-0.311,2.607-0.884,3.764l0,0c-0.196,0.396-0.425,0.775-0.681,1.14c-0.024,0.034-0.05,0.066-0.074,0.1
	c-0.256,0.353-0.536,0.692-0.851,1.007c-0.276,0.276-0.57,0.523-0.873,0.752c-0.07,0.053-0.143,0.101-0.213,0.15
	c-0.252,0.179-0.51,0.344-0.775,0.492c-1.508,0.844-3.216,1.203-4.894,1.057C357.444,95.158,352.045,100,345.5,100l2,22h28
	c0-9.957,2.698-18.563,5.535-25.822C376.408,100.412,370.251,103,363.5,103v-1c13.785,0,25-11.215,25-25s-11.215-25-25-25h-1v10h-1
	v-4h-7c-3.866,0-7,3.134-7,7c0,1.831-16,7.76-16,16c0,3.38,2.395,6.199,5.58,6.855L342.875,83.219z M356.985,63.143l1.029,1.715
	l-5,3l-1.029-1.715L356.985,63.143z M334.945,81.168l3-2l1.109,1.664l-3,2L334.945,81.168z M380.5,123c1.1,0,2,0.9,2,2s-0.9,2-2,2
	h-38c-1.1,0-2-0.9-2-2s0.9-2,2-2H380.5z M387.5,132c0,2.2-1.8,4-4,4h-44c-2.2,0-4-1.8-4-4s1.8-4,4-4h44
	C385.7,128,387.5,129.8,387.5,132z"/>
<path d="M487,81c0-1.1,0.9-2,2-2h22c1.1,0,2,0.9,2,2s-0.9,2-2,2h-22C487.9,83,487,82.1,487,81z M484,127h32c1.1,0,2-0.9,2-2
	s-0.9-2-2-2h-32c-1.1,0-2,0.9-2,2S482.9,127,484,127z M519,128h-38c-2.2,0-4,1.8-4,4s1.8,4,4,4h38c2.2,0,4-1.8,4-4
	S521.2,128,519,128z M500,78c7.18,0,13-5.82,13-13s-5.82-13-13-13s-13,5.82-13,13S492.82,78,500,78z M508,84h-16
	c0,33.478-4.052,33.959-5.99,38h27.98C512.052,117.959,508,117.478,508,84z"/>
<path d="M93,219c0,1.1-0.9,2-2,2H69c-1.1,0-2-0.9-2-2s0.9-2,2-2h22C92.1,217,93,217.9,93,219z M64,267h32c1.1,0,2-0.9,2-2
	s-0.9-2-2-2H64c-1.1,0-2,0.9-2,2S62.9,267,64,267z M99,268H61c-2.2,0-4,1.8-4,4s1.8,4,4,4h38c2.2,0,4-1.8,4-4S101.2,268,99,268z
	 M70.973,222c-0.277,29.941-2.637,33.514-3.583,40h25.22c-0.946-6.486-3.306-10.059-3.583-40H70.973z M64.965,206l3.89,10h22.291
	l3.89-10H64.965z M95.424,205l2.44-6.275l-3.729-1.449l-1.361,3.501c-1.851-0.886-5.641-1.543-10.218-1.724
	C83.432,198.318,84,197.23,84,196c0-2.209-1.791-4-4-4s-4,1.791-4,4c0,1.23,0.568,2.318,1.443,3.053
	c-4.577,0.181-8.367,0.838-10.218,1.724l-1.361-3.501l-3.729,1.449L64.576,205H95.424z"/>
<path d="M201,207.5v-15h7v6h6v-6h12v6h6v-6h7v15c0,2.2-1.8,4-4,4h-30C202.8,211.5,201,209.7,201,207.5z M235,216.5c1.1,0,2-0.9,2-2
	s-0.9-2-2-2h-30c-1.1,0-2,0.9-2,2s0.9,2,2,2H235z M200,266.5h40c1.1,0,2-0.9,2-2s-0.9-2-2-2h-40c-1.1,0-2,0.9-2,2
	S198.9,266.5,200,266.5z M243,267.5h-46c-2.2,0-4,1.8-4,4s1.8,4,4,4h46c2.2,0,4-1.8,4-4S245.2,267.5,243,267.5z M238.262,261.5
	c-1.798-6.248-6.262-8.861-6.262-44h-24c0,35.139-4.464,37.752-6.262,44H238.262z"/>
<g>
	<g>
		<path fill="none" stroke="#000000" stroke-width="4" stroke-miterlimit="10" d="M383,274c0,2.2-1.8,4-4,4h-38c-2.2,0-4-1.8-4-4
			l0,0c0-2.2,1.8-4,4-4h38C381.2,270,383,271.8,383,274L383,274z"/>
	</g>
	<g>
		<path fill="none" stroke="#000000" stroke-width="4" stroke-miterlimit="10" d="M373,225c0,1.65-1.35,3-3,3h-20
			c-1.65,0-3-1.35-3-3l0,0c0-1.65,1.35-3,3-3h20C371.65,222,373,223.35,373,225L373,225z"/>
	</g>
	<g>
		<path fill="none" stroke="#000000" stroke-width="4" stroke-miterlimit="10" d="M378,267c0,1.65-1.35,3-3,3h-30
			c-1.65,0-3-1.35-3-3l0,0c0-1.65,1.35-3,3-3h30C376.65,264,378,265.35,378,267L378,267z"/>
	</g>
	<path fill="none" stroke="#000000" stroke-width="4" stroke-miterlimit="10" d="M360,190c0,5-13,16-13,21s4,11,4,11h18
		c0,0,4-6,4-11S360,195,360,190z"/>
	<line fill="none" stroke="#000000" stroke-width="4" stroke-miterlimit="10" x1="358" y1="208" x2="354" y2="200"/>
	<path fill="none" stroke="#000000" stroke-width="4" stroke-miterlimit="10" d="M372.578,264c-0.942-5.738-3.17-8.413-3.528-36
		h-18.1c-0.358,27.587-2.586,30.262-3.528,36H372.578z"/>
</g>
<g>
	<g>
		<path fill="none" stroke="#000000" stroke-width="4" stroke-miterlimit="10" d="M523,274c0,2.2-1.8,4-4,4h-38c-2.2,0-4-1.8-4-4
			l0,0c0-2.2,1.8-4,4-4h38C521.2,270,523,271.8,523,274L523,274z"/>
	</g>
	<g>
		<path fill="none" stroke="#000000" stroke-width="4" stroke-miterlimit="10" d="M513,221c0,1.65-1.35,3-3,3h-20
			c-1.65,0-3-1.35-3-3l0,0c0-1.65,1.35-3,3-3h20C511.65,218,513,219.35,513,221L513,221z"/>
	</g>
	<g>
		<path fill="none" stroke="#000000" stroke-width="4" stroke-miterlimit="10" d="M518,267c0,1.65-1.35,3-3,3h-30
			c-1.65,0-3-1.35-3-3l0,0c0-1.65,1.35-3,3-3h30C516.65,264,518,265.35,518,267L518,267z"/>
	</g>
	<polygon fill="none" stroke="#000000" stroke-width="4" stroke-miterlimit="10" points="513,205 509,218 491,218 487,205 500,200 	
		"/>
	<line fill="none" stroke="#000000" stroke-width="4" stroke-miterlimit="10" x1="500" y1="200" x2="500" y2="190"/>
	<line fill="none" stroke="#000000" stroke-width="4" stroke-miterlimit="10" x1="496" y1="194" x2="504" y2="194"/>
	<line fill="none" stroke="#000000" stroke-width="4" stroke-miterlimit="10" x1="488" y1="208" x2="512" y2="208"/>
	<path fill="none" stroke="#000000" stroke-width="4" stroke-miterlimit="10" d="M512.61,264c-0.946-6.487-3.306-10.059-3.583-40
		h-18.054c-0.277,29.941-2.637,33.513-3.583,40H512.61z"/>
</g>
<g>
	<g>
		<path fill="none" stroke="#000000" stroke-width="4" stroke-miterlimit="10" d="M243,412c0,2.2-1.8,4-4,4h-38c-2.2,0-4-1.8-4-4
			l0,0c0-2.2,1.8-4,4-4h38C241.2,408,243,409.8,243,412L243,412z"/>
	</g>
	<circle fill="none" stroke="#000000" stroke-width="4" stroke-miterlimit="10" cx="220" cy="345" r="13"/>
	<g>
		<path fill="none" stroke="#000000" stroke-width="4" stroke-miterlimit="10" d="M233,361c0,1.65-1.35,3-3,3h-20
			c-1.65,0-3-1.35-3-3l0,0c0-1.65,1.35-3,3-3h20C231.65,358,233,359.35,233,361L233,361z"/>
	</g>
	<g>
		<path fill="none" stroke="#000000" stroke-width="4" stroke-miterlimit="10" d="M238,405c0,1.65-1.35,3-3,3h-30
			c-1.65,0-3-1.35-3-3l0,0c0-1.65,1.35-3,3-3h30C236.65,402,238,403.35,238,405L238,405z"/>
	</g>
	<path fill="none" stroke="#000000" stroke-width="4" stroke-miterlimit="10" d="M233.99,402c-1.938-4.041-5.99-4.522-5.99-38h-16
		c0,33.478-4.052,33.959-5.99,38H233.99z"/>
</g>
<g>
	<g>
		<path fill="none" stroke="#000000" stroke-width="4" stroke-miterlimit="10" d="M383,412c0,2.2-1.8,4-4,4h-38c-2.2,0-4-1.8-4-4
			l0,0c0-2.2,1.8-4,4-4h38C381.2,408,383,409.8,383,412L383,412z"/>
	</g>
	<g>
		<path fill="none" stroke="#000000" stroke-width="4" stroke-miterlimit="10" d="M373,359c0,1.65-1.35,3-3,3h-20
			c-1.65,0-3-1.35-3-3l0,0c0-1.65,1.35-3,3-3h20C371.65,356,373,357.35,373,359L373,359z"/>
	</g>
	<g>
		<path fill="none" stroke="#000000" stroke-width="4" stroke-miterlimit="10" d="M378,405c0,1.65-1.35,3-3,3h-30
			c-1.65,0-3-1.35-3-3l0,0c0-1.65,1.35-3,3-3h30C376.65,402,378,403.35,378,405L378,405z"/>
	</g>
	<polyline fill="none" stroke="#000000" stroke-width="4" stroke-miterlimit="10" points="344,338 351,356 369,356 376,338 	"/>
	<path fill="none" stroke="#000000" stroke-width="4" stroke-miterlimit="10" d="M346,343c0-1.657,6.268-3,14-3s14,1.343,14,3"/>
	<circle fill="none" stroke="#000000" stroke-width="4" stroke-miterlimit="10" cx="360" cy="336" r="4"/>
	<line fill="none" stroke="#000000" stroke-width="4" stroke-miterlimit="10" x1="347" y1="346" x2="373" y2="346"/>
	<path fill="none" stroke="#000000" stroke-width="4" stroke-miterlimit="10" d="M372.61,402c-0.946-6.487-3.306-10.059-3.583-40
		h-18.054c-0.277,29.941-2.637,33.513-3.583,40H372.61z"/>
</g>
<g>
	<g>
		<path fill="none" stroke="#000000" stroke-width="4" stroke-miterlimit="10" d="M527,411.5c0,2.2-1.8,4-4,4h-46c-2.2,0-4-1.8-4-4
			l0,0c0-2.2,1.8-4,4-4h46C525.2,407.5,527,409.3,527,411.5L527,411.5z"/>
	</g>
	<g>
		<path fill="none" stroke="#000000" stroke-width="4" stroke-miterlimit="10" d="M517,354.5c0,1.65-1.35,3-3,3h-28
			c-1.65,0-3-1.35-3-3l0,0c0-1.65,1.35-3,3-3h28C515.65,351.5,517,352.85,517,354.5L517,354.5z"/>
	</g>
	<g>
		<path fill="none" stroke="#000000" stroke-width="4" stroke-miterlimit="10" d="M522,404.5c0,1.65-1.35,3-3,3h-38
			c-1.65,0-3-1.35-3-3l0,0c0-1.65,1.35-3,3-3h38C520.65,401.5,522,402.85,522,404.5L522,404.5z"/>
	</g>
	<g>
		<path fill="none" stroke="#000000" stroke-width="4" stroke-miterlimit="10" d="M481,332.5v16c0,1.65,1.35,3,3,3h32
			c1.65,0,3-1.35,3-3v-16"/>
	</g>
	<polyline fill="none" stroke="#000000" stroke-width="4" stroke-miterlimit="10" points="519,338.5 519,332.5 512,332.5 512,338.5 
		506,338.5 506,332.5 494,332.5 494,338.5 488,338.5 488,332.5 481,332.5 481,338.5 	"/>
	<path fill="none" stroke="#000000" stroke-width="4" stroke-miterlimit="10" d="M518.262,401.5c-1.798-6.249-6.262-8.861-6.262-44
		h-24c0,35.139-4.464,37.751-6.262,44H518.262z"/>
</g>
<g>
	<g>
		<path fill="none" stroke="#000000" stroke-width="4" stroke-miterlimit="10" d="M108,411.5c0,2.2-1.8,4-4,4H60c-2.2,0-4-1.8-4-4
			l0,0c0-2.2,1.8-4,4-4h44C106.2,407.5,108,409.3,108,411.5L108,411.5z"/>
	</g>
	<path fill="none" stroke="#000000" stroke-width="4" stroke-miterlimit="10" d="M103.86,369.977
		c-3.469,8.312-7.86,18.82-7.86,31.523H68l-2-22c7.18,0,13-5.82,13-13"/>
	<g>
		<path fill="none" stroke="#000000" stroke-width="4" stroke-miterlimit="10" d="M103,404.5c0,1.65-1.35,3-3,3H64
			c-1.65,0-3-1.35-3-3l0,0c0-1.65,1.35-3,3-3h36C101.65,401.5,103,402.85,103,404.5L103,404.5z"/>
	</g>
	<line fill="none" stroke="#000000" stroke-width="4" stroke-miterlimit="10" x1="59" y1="367.5" x2="64" y2="363.5"/>
	<line fill="none" stroke="#000000" stroke-width="4" stroke-miterlimit="10" x1="73" y1="346.5" x2="78" y2="343.5"/>
	<line fill="none" stroke="#000000" stroke-width="4" stroke-miterlimit="10" x1="56" y1="361.5" x2="59" y2="359.5"/>
	<path fill="none" stroke="#000000" stroke-width="4" stroke-miterlimit="10" d="M84,342.5v-10c13.255,0,24,10.745,24,24
		s-10.745,24-24,24"/>
	<path fill="none" stroke="#000000" stroke-width="4" stroke-miterlimit="10" d="M52,360.5c0-8.24,16-14.169,16-16
		c0-3.866,3.134-7,7-7h9"/>
	<path fill="none" stroke="#000000" stroke-width="4" stroke-miterlimit="10" d="M52,360.5c0,3.866,3.134,7,7,7"/>
	<path fill="none" stroke="#000000" stroke-width="4" stroke-miterlimit="10" d="M60,367.5c0,2.209,1.791,4,4,4s4-1.791,4-4l7-3
		c2.539,2.539,6.654,2.539,9.192,0s2.539-6.654,0-9.192"/>
</g>
</svg>
